<svg width="192" height="143" viewBox="0 0 192 143" fill="none" xmlns="http://www.w3.org/2000/svg">
<path d="M73.1175 136.596C61.0768 139.065 53.9271 140.045 42.2807 136.596C28.8461 132.617 20.2901 128.081 12.0484 115.488C3.14403 101.883 2.03816 90.085 3.58343 73.274C5.01037 57.7502 9.45771 49.2248 17.4902 36.5066C25.1406 24.3934 30.5077 17.3555 42.2807 10.6332C52.4464 4.82863 59.3103 3.66107 70.699 3.14356C82.6458 2.60069 89.8886 3.4276 100.931 8.59059C112.315 13.9132 119.263 18.322 126.326 29.6978C130.75 36.8229 132.906 41.714 134.187 50.1241C144.246 50.555 150.22 50.7616 159.582 54.8903C170.011 59.4897 177.167 62.6208 183.163 73.274C188.346 82.4821 189.806 89.6915 188.605 100.509C187.425 111.129 184.471 117.487 177.721 125.021C171.644 131.803 167.6 135.069 158.372 136.596C149.145 138.122 117.861 136.596 117.861 136.596M96.094 140L96.699 65.7844M96.699 65.7844L74.9315 89.615M96.699 65.7844L117.861 89.615" stroke="black" stroke-width="5" stroke-linecap="round"/>
</svg>
